<svg xmlns="http://www.w3.org/2000/svg" width="631.524" height="212.251" viewBox="0 0 631.524 212.251">
  <g id="Group_6686" data-name="Group 6686" transform="translate(-373.001 -579.5)">
    <g id="Group_6813" data-name="Group 6813" transform="translate(-4472.498 -8645)">
      <g id="Group_6789" data-name="Group 6789" transform="translate(4536.032 9141)">
        <g id="Group_6723" data-name="Group 6723" transform="translate(-6173 -4908)">
          <g id="Group_6722" data-name="Group 6722" transform="translate(162 7)">
            <path id="Subtraction_2" data-name="Subtraction 2" d="M1653.511-4028.749h-47.937c-8.357-10.915-16.636-22.081-24.607-33.186-8.031-11.189-16.119-22.646-24.037-34.054h-39.771v67.24h-40.192v-154l37.339,26.239-14.885,46.78,39.338-28.707,39.338,28.707-14.885-46.78,39.339-27.644h-47.844L1538.76-4226.4l-15.948,42.244h-45.845V-4240h95.469a86.757,86.757,0,0,1,15.421,1.335,73.116,73.116,0,0,1,14.056,4.005,69.658,69.658,0,0,1,12.4,6.419,63.6,63.6,0,0,1,10.458,8.586,66.452,66.452,0,0,1,8.448,10.6,72.672,72.672,0,0,1,6.365,12.482,74.064,74.064,0,0,1,3.989,14.033,85.66,85.66,0,0,1,1.33,15.258,81.839,81.839,0,0,1-2.984,22.436,68.973,68.973,0,0,1-8.955,19.406,68.628,68.628,0,0,1-13.908,15.371,67.667,67.667,0,0,1-17.865,10.316c17.743,23.6,35.346,47.482,52.32,71Z" transform="translate(4844 9225)" fill="#f60" stroke="rgba(0,0,0,0)" stroke-miterlimit="10" stroke-width="1"/>
          </g>
        </g>
      </g>
      <path id="UPSKILL" d="M23.486-86.646v52.178a42.655,42.655,0,0,0,.952,10.537,16.731,16.731,0,0,0,6.221,9.395,19.1,19.1,0,0,0,11.807,3.872,18.647,18.647,0,0,0,13.076-4.951,17.038,17.038,0,0,0,5.332-9.9,52.255,52.255,0,0,0,.571-8.95V-86.646H74.521v55.732q0,12.124-6.6,20.439a30.737,30.737,0,0,1-11.3,8.887A32.25,32.25,0,0,1,42.466,1.65,32.258,32.258,0,0,1,23.3-4.507Q10.41-13.711,10.41-30.913V-86.646Zm84.932,51.479V0H95.342V-86.646h14.79q12,0,17.139,1.714a23,23,0,0,1,13.838,12,26.229,26.229,0,0,1,2.856,12q0,11.172-7.554,18.408-7.681,7.363-21.9,7.363Zm0-12.124h4.888q9.395,0,13.584-3.491,4.443-3.745,4.443-10.347,0-6.855-4.888-10.347-4.316-3.11-13.711-3.11h-4.316Zm98.008-26.47-10.6,6.284a24.874,24.874,0,0,0-4.126-5.459,12.4,12.4,0,0,0-8.76-3.047,13.088,13.088,0,0,0-9.268,3.237,9.761,9.761,0,0,0-3.428,7.49q0,4.316,4.126,7.236A23.484,23.484,0,0,0,179.7-55.1l8.633,3.555q10.854,4.443,15.488,10.537a24.051,24.051,0,0,1,4.824,14.98A26.821,26.821,0,0,1,199.824-5.4Q192.207,1.65,180.781,1.65,166.118,1.65,158.12-9.9q-3.745-5.4-5.015-14.028l13.2-2.92q.825,6.6,2.476,9.521a12.333,12.333,0,0,0,5.11,4.856,15.484,15.484,0,0,0,7.4,1.809,13.418,13.418,0,0,0,10.664-4.7,14.343,14.343,0,0,0,3.491-9.775,12.944,12.944,0,0,0-6.03-11.362,34.838,34.838,0,0,0-6.348-3.364l-8.315-3.555q-17.773-7.427-17.773-21.963a20.545,20.545,0,0,1,9.839-18.154A29.007,29.007,0,0,1,183-88.3a24.785,24.785,0,0,1,16.758,5.967A33.663,33.663,0,0,1,206.426-73.76Zm31.04,21.709,33.706-34.595h17.456l-39.1,39.229L288.882,0h-17.52L240.2-38.53l-2.729,2.666V0H224.39V-86.646h13.076Zm76.172-34.595V0H300.562V-86.646Zm33.9,0v74.331h25.518V0H334.458V-86.646Zm50.972,0v74.331h25.518V0H385.43V-86.646Z" transform="translate(5053 9434)" fill="#f60"/>
    </g>
  </g>
</svg>
